<?xml version="1.0" standalone="no"?>
<!DOCTYPE svg PUBLIC "-//W3C//DTD SVG 20010904//EN"
 "http://www.w3.org/TR/2001/REC-SVG-20010904/DTD/svg10.dtd">
<svg version="1.0" xmlns="http://www.w3.org/2000/svg"
 width="2400.000000pt" height="2286.000000pt" viewBox="0 0 2400.000000 2286.000000"
 preserveAspectRatio="xMidYMid meet">

<g transform="translate(0.000000,2286.000000) scale(0.100000,-0.100000)"
fill="#000000" stroke="none">
<path d="M700 22843 c0 -11 228 -334 379 -538 1518 -2055 3555 -3977 6586
-6217 657 -485 955 -700 2190 -1577 1812 -1287 2389 -1705 3070 -2226 1620
-1240 2706 -2278 3400 -3250 863 -1207 1204 -2380 1050 -3610 -197 -1572
-1198 -3254 -3064 -5148 -140 -141 -251 -260 -247 -264 16 -17 695 691 1046
1092 1229 1401 1973 2721 2220 3937 165 817 121 1601 -134 2373 -449 1355
-1527 2682 -3456 4251 -873 710 -1563 1220 -3770 2787 -1476 1048 -2000 1428
-2738 1984 -1748 1318 -3008 2402 -4187 3603 -832 848 -1579 1737 -2185 2603
-131 186 -160 223 -160 200z"/>
<path d="M10 22579 c0 -21 379 -493 654 -813 1266 -1480 2831 -2913 4931
-4517 819 -626 1472 -1100 3430 -2489 1240 -880 1662 -1185 2260 -1635 1112
-836 1870 -1474 2539 -2135 395 -391 623 -640 905 -990 807 -1003 1239 -1958
1347 -2977 24 -220 24 -662 0 -878 -22 -202 -65 -463 -106 -636 -291 -1239
-1055 -2534 -2335 -3959 -350 -390 -936 -985 -1322 -1344 -171 -158 -216 -206
-183 -194 17 6 368 337 629 593 1613 1586 2635 3038 3084 4386 347 1040 363
2017 52 2989 -146 455 -387 945 -691 1408 -799 1214 -2141 2471 -4419 4137
-512 375 -1012 733 -2045 1465 -1884 1336 -2676 1917 -3645 2674 -1892 1479
-3388 2887 -4571 4301 -149 179 -467 574 -488 608 -12 19 -26 23 -26 6z"/>
<path d="M14 21638 c-10 -15 113 -145 576 -609 1146 -1149 2357 -2181 4050
-3454 746 -561 1341 -991 2855 -2065 1587 -1127 2251 -1609 2910 -2119 1480
-1143 2491 -2101 3180 -3016 639 -849 1015 -1677 1145 -2525 36 -240 45 -369
44 -680 0 -325 -11 -465 -59 -753 -213 -1270 -952 -2622 -2235 -4087 -605
-691 -1393 -1469 -2210 -2184 -135 -118 -152 -136 -130 -136 20 0 432 365 840
744 273 253 943 924 1161 1161 747 814 1267 1489 1692 2197 541 900 836 1703
942 2563 22 177 31 663 16 847 -51 614 -204 1158 -490 1743 -634 1297 -1793
2535 -3891 4155 -665 513 -1339 1004 -2953 2149 -1721 1221 -2506 1793 -3318
2418 -1647 1269 -2812 2300 -4032 3569 -48 51 -90 88 -93 82z"/>
<path d="M10 20921 c0 -27 842 -774 1355 -1202 1178 -983 2332 -1852 4470
-3367 2436 -1727 3265 -2343 4170 -3096 754 -628 1419 -1269 1896 -1826 742
-867 1214 -1716 1429 -2570 45 -177 72 -320 101 -535 26 -192 37 -673 20 -892
-108 -1370 -829 -2813 -2201 -4408 -777 -903 -1863 -1944 -3038 -2915 -98 -81
-115 -100 -91 -100 13 0 317 252 649 539 1747 1509 3004 2908 3770 4196 945
1590 1179 3046 716 4456 -426 1297 -1435 2571 -3214 4057 -913 763 -1733 1372
-4177 3104 -501 355 -1038 739 -1447 1035 -1771 1284 -3072 2324 -4197 3355
-106 98 -197 178 -202 178 -5 0 -9 -4 -9 -9z"/>
<path d="M12 20360 c7 -23 880 -728 1343 -1086 895 -692 1645 -1240 3395
-2482 2183 -1550 2959 -2125 3805 -2821 854 -703 1585 -1404 2081 -1996 1031
-1231 1514 -2377 1514 -3594 0 -1632 -883 -3360 -2725 -5331 -177 -190 -726
-738 -965 -965 -655 -620 -1348 -1219 -2145 -1854 -262 -209 -261 -208 -253
-217 4 -3 132 94 285 217 2910 2330 4694 4376 5432 6232 190 478 313 964 368
1457 24 216 24 705 0 918 -66 583 -220 1098 -497 1657 -681 1374 -1987 2716
-4395 4515 -603 450 -1078 793 -2384 1719 -2443 1734 -3484 2512 -4628 3458
-122 100 -224 183 -228 183 -4 0 -5 -4 -3 -10z"/>
</g>
</svg>
